<svg width="55" height="55" viewBox="0 0 55 55" fill="none" xmlns="http://www.w3.org/2000/svg">
<path d="M14.5234 12.6113L11.7197 20.625H43.2803L40.4766 12.6113C39.9932 11.2363 38.6934 10.3125 37.2324 10.3125H17.7676C16.3066 10.3125 15.0068 11.2363 14.5234 12.6113V12.6113ZM4.25391 21.1406L8.03516 10.3447C9.48535 6.20898 13.3848 3.4375 17.7676 3.4375H37.2324C41.6152 3.4375 45.5146 6.20898 46.9648 10.3447L50.7461 21.1406C53.2383 22.1719 55 24.6318 55 27.5V42.9688V48.125C55 50.0264 53.4639 51.5625 51.5625 51.5625H48.125C46.2236 51.5625 44.6875 50.0264 44.6875 48.125V42.9688H10.3125V48.125C10.3125 50.0264 8.77637 51.5625 6.875 51.5625H3.4375C1.53613 51.5625 0 50.0264 0 48.125V42.9688V27.5C0 24.6318 1.76172 22.1719 4.25391 21.1406ZM13.75 30.9375C13.75 29.0361 12.2139 27.5 10.3125 27.5C8.41113 27.5 6.875 29.0361 6.875 30.9375C6.875 32.8389 8.41113 34.375 10.3125 34.375C12.2139 34.375 13.75 32.8389 13.75 30.9375ZM44.6875 34.375C46.5889 34.375 48.125 32.8389 48.125 30.9375C48.125 29.0361 46.5889 27.5 44.6875 27.5C42.7861 27.5 41.25 29.0361 41.25 30.9375C41.25 32.8389 42.7861 34.375 44.6875 34.375Z" fill="#5FC1BE"/>
</svg>
